{"title":"Natobar Notout (2010)  -  Bengali  -  Original DVD RIP","uid":7272447,"size":733432165,"categoryP":"video","categoryS":"movies","magnet":"?xt=urn:btih:ed888515714fcd4480ffde7de4f0e837dcde0fd5&amp;dn=Natobar+Notout+%282010%29++-++Bengali++-++Original+DVD+RIP&amp;tr=udp%3A%2F%2Ftracker.openbittorrent.com%3A80&amp;tr=udp%3A%2F%2Fopen.demonii.com%3A1337&amp;tr=udp%3A%2F%2Ftracker.coppersurfer.tk%3A6969&amp;tr=udp%3A%2F%2Fexodus.desync.com%3A6969","seeders":0,"leechers":1,"uploader":null,"files":-1,"time":1337094133,"description":"\n\n\nNote : I Will Not Be In Kolkata For Two Days ! Fortunately I Find An Assistant, Unfortunately He Is Also Very Busy ! So Seeding Task Will Be Delayed But Eventually Completed ! So Keep Patience ! Enjoy !\n\n\n\nScreens :\n\n\n &lt;a href=&quot;\nhttp://www.shotpix.com/images/72035271658387360656.jpeg&quot; rel=&quot;nofollow&quot; target=&quot;_NEW&quot;&gt;\nhttp://www.shotpix.com/images/72035271658387360656.jpeg&lt;/a&gt;\n &lt;a href=&quot;\nhttp://www.shotpix.com/images/00348859943389704731.jpg&quot; rel=&quot;nofollow&quot; target=&quot;_NEW&quot;&gt;\nhttp://www.shotpix.com/images/00348859943389704731.jpg&lt;/a&gt;\n\n\n\nExtra Screen Shots :\n\n\n &lt;a href=&quot;\nhttp://www.shotpix.com/images/75538121251515086244.jpg&quot; rel=&quot;nofollow&quot; target=&quot;_NEW&quot;&gt;\nhttp://www.shotpix.com/images/75538121251515086244.jpg&lt;/a&gt;\n &lt;a href=&quot;\nhttp://www.shotpix.com/images/20597215888322821102.jpg&quot; rel=&quot;nofollow&quot; target=&quot;_NEW&quot;&gt;\nhttp://www.shotpix.com/images/20597215888322821102.jpg&lt;/a&gt;\n &lt;a href=&quot;\nhttp://www.shotpix.com/images/58715342309681557138.jpg&quot; rel=&quot;nofollow&quot; target=&quot;_NEW&quot;&gt;\nhttp://www.shotpix.com/images/58715342309681557138.jpg&lt;/a&gt;\n &lt;a href=&quot;\nhttp://www.shotpix.com/images/39503220803504857405.jpg&quot; rel=&quot;nofollow&quot; target=&quot;_NEW&quot;&gt;\nhttp://www.shotpix.com/images/39503220803504857405.jpg&lt;/a&gt;\n\n\n\nMedia Info :\n\n\n\nFormat                           : AVI\nFormat/Info                      : Audio Video Interleave\nFile size                        : 698 MiB\nDuration                         : 2h 26mn\nOverall bit rate                 : 666 Kbps\n\nVideo\nID                               : 0\nFormat                           : MPEG-4 Visual\nFormat settings, GMC             : No warppoints\nFormat settings, Matrix          : Custom\nCodec ID                         : XVID\nCodec ID/Hint                    : XviD\nDuration                         : 2h 26mn\nBit rate                         : 538 Kbps\nWidth                            : 544 pixels\nHeight                           : 336 pixels\nDisplay aspect ratio             : 1.619\nFrame rate                       : 29.970 fps\nColor space                      : YUV\nChroma subsampling               : 4:2:0\nBit depth                        : 8 bits\nScan type                        : Progressive\nCompression mode                 : Lossy\nBits/(Pixel*Frame)               : 0.098\nStream size                      : 565 MiB (81%)\nWriting library                  : XviD 1.2.1 (UTC 2008-12-04)\n\nAudio\nID                               : 1\nFormat                           : MPEG Audio\nFormat version                   : Version 1\nFormat profile                   : Layer 3\nMode                             : Joint stereo\nMode extension                   : MS Stereo\nCodec ID                         : 55\nCodec ID/Hint                    : MP3\nDuration                         : 2h 26mn\nBit rate mode                    : Variable\nBit rate                         : 114 Kbps\nNominal bit rate                 : 128 Kbps\nChannel(s)                       : 2 channels\nSampling rate                    : 48.0 KHz\nCompression mode                 : Lossy\nStream size                      : 119 MiB (17%)\nAlignment                        : Aligned on interleaves\nInterleave, duration             : 24 ms (0.72 video frame)\n\n\n\n\n\n","torrent":{"xt":"urn:btih:ed888515714fcd4480ffde7de4f0e837dcde0fd5","amp;dn":"Natobar+Notout+%282010%29++-++Bengali++-++Original+DVD+RIP","amp;tr":["udp%3A%2F%2Ftracker.openbittorrent.com%3A80","udp%3A%2F%2Fopen.demonii.com%3A1337","udp%3A%2F%2Ftracker.coppersurfer.tk%3A6969","udp%3A%2F%2Fexodus.desync.com%3A6969"],"infoHash":"ed888515714fcd4480ffde7de4f0e837dcde0fd5","infoHashBuffer":{"type":"Buffer","data":[237,136,133,21,113,79,205,68,128,255,222,125,228,240,232,55,220,222,15,213]},"announce":[],"urlList":[]}}